<?xml version="1.0" encoding="utf-8"?>
<!-- Generator: Adobe Illustrator 24.0.0, SVG Export Plug-In . SVG Version: 6.00 Build 0)  -->
<svg version="1.1" id="logo" xmlns="http://www.w3.org/2000/svg" xmlns:xlink="http://www.w3.org/1999/xlink" x="0px" y="0px"
	 viewBox="0 0 512 314" style="enable-background:new 0 0 512 314;" xml:space="preserve">
<path d="M508.6,85c-3.3-8.9-8.6-16.8-14.7-23.7c-6.1-7-13.2-12.9-20.6-18.3c-15-10.6-31.5-18.4-48.6-24.5
	C407.7,12.4,390.1,8,372.3,5c-8.9-1.5-17.8-2.8-26.9-3.7c-9-0.8-18.2-1.3-27.4-1.2c-18.3,0.3-37.2,2.8-55,10.8
	c-8.8,3.9-17.3,9.3-24.6,16.2c-3.6,3.5-6.9,7.3-9.8,11.5c-2.9,4.1-5.3,8.9-7.1,13.3l0.2,0.1c-8,16.2-17.8,31.6-29.5,45.6
	c-5.8,7.2-12.3,13.8-19,20.3c-6.7,6.4-13.9,12.4-21.3,18c-14.9,11.2-31,21.1-48,29.3c-17,8.2-34.7,15.2-53.1,19.8l0.5,2.6
	c9.6-1.4,18.9-3.7,28.2-6.3c9.3-2.6,18.4-5.7,27.4-9.3c17.9-7.2,35.3-16,51.6-26.8c8.1-5.4,16-11.2,23.5-17.5
	c7.4-6.4,14.7-13,21.4-20.2c2.1-2.2,4.1-4.5,6.2-6.8c0,0.3-0.1,0.6-0.1,1c-2.3,16.8-2.8,34-1.1,51c1.4,15.5,4.7,30.7,9.3,45.4
	c-9.8,0.1-19.6,0.2-29.4,0.1c-29.5-0.3-59-1.9-88.5-3.7l-99.8-6l93.8,36.8c9.8,3.8,20,8.2,29.9,12.5c10,4.3,19.9,8.7,29.7,13.2
	c9.8,4.6,19.6,9.1,29.3,14l7.5,3.8l3.8,1.9l3.8,1.8c4.6,2.2,9.2,4.6,13.8,7.1c9.2,5,18.4,10.6,27.7,16.4c4.7,2.9,9.4,5.8,14.4,8.8
	c2.5,1.5,5.1,3,8,4.5c1.5,0.8,3,1.5,4.8,2.3c1.9,0.8,3.7,1.6,7.6,2.3c1,0.2,2.1,0.3,3.7,0.3c1.6,0,3.4-0.1,6-1
	c2.5-0.8,5.6-2.8,7.6-5.3c2.1-2.5,3.1-5.2,3.5-7.1c0.8-3.9,0.5-6,0.3-7.7c-0.2-1.7-0.6-2.9-0.9-4.1c-1.3-4.4-2.7-7.2-4-10.1
	c-2.8-5.7-5.6-10.6-8.5-15.6c-5.7-9.7-11.8-19-17.9-28.2c-3.5-6.2-6.8-12.4-9.8-18.8c8.3-1.1,16.5-2.2,24.8-3.4
	c0.3,0,0.6-0.1,0.9-0.1c1.1,1.6,2.4,3.2,3.9,4.6l2.6-0.6c0.6-1.8,1.1-3.5,1.5-5.2c11.9-1.9,23.8-3.9,35.6-6.2c0.2,0,0.3-0.1,0.5-0.1
	c0.6,11.8,1.5,23.6,2.8,35.4c2,18.4,4.5,36.9,9,55.3l2.7-0.1c3.6-18.6,5.1-37.2,5.9-55.8c0.6-13.1,0.6-26.1,0.3-39.2
	c7.6-1.7,15.3-3.5,22.8-5.5c3-0.8,6-1.6,8.9-2.4c0.5,10.7,1.2,21.4,2,32.2c0.7,7.6,1.4,15.3,2.4,23c1.1,7.7,1.9,15.5,3.9,23.5
	l2.7,0.3c6.7-14.9,10.4-30.5,12.4-46.3c1.8-13.2,2-26.6,1.4-39.8c17.5-5.5,34.8-11.8,51.4-19.6c16.7-6,33.3-14.5,45.6-28.4
	c6.1-6.9,10.9-15.3,12.9-24.7C512.9,103.7,511.9,93.8,508.6,85z M264.8,296.9C264.8,296.9,264.8,296.9,264.8,296.9
	C264.8,296.9,264.8,296.9,264.8,296.9C264.8,297.1,264.8,297.2,264.8,296.9z M238.9,249.1l0.1,0.2l0.4,0.7c2.6,4.3,5.2,8.6,7.7,13
	c-6.3-4.1-12.8-8.1-19.5-12c-5-2.9-10.2-5.7-15.5-8.3l-3.7-1.8l-3.5-1.8l-7.2-3.8c-7.9-4-15.7-7.9-23.7-11.6
	c5.1-0.3,10.1-0.7,15.2-1.1c12.1-0.9,24.2-2,36.3-3.2C229.4,229.6,234,239.5,238.9,249.1z M451.3,163.6
	c-13.8,5.1-28.3,8.9-42.7,12.3c-2.7,0.6-5.4,1.2-8.2,1.8c-1.2-15.7-3.7-31.3-7.6-46.6c-4-15.3-9.2-30.5-17.4-44.5l-2.6,0.7
	c-0.2,15.9,0.3,31.3,0.8,46.6c0.5,15.3,1.3,30.4,1.9,45.6c0,1.1,0.1,2.2,0.2,3.3c-3.6,0.7-7.1,1.3-10.7,1.9c-7,1.2-14,2.2-21,3.3
	c0-1.2-0.1-2.5-0.1-3.7c-0.8-18.5-2.2-37-4.4-55.5c-2.2-18.5-5-36.9-9.5-55.2l-2.7,0.1c-2.7,18.7-3.9,37.2-4.5,55.8
	c-0.6,18.5-0.5,37.1,0,55.6c0.1,1.9,0.1,3.8,0.2,5.8c-11.2,1.4-22.4,2.5-33.6,3.5c0-4.2-0.3-8.4-0.7-12.6
	c-0.6-5.6-1.4-11.2-2.6-16.9c-1.2-5.7-2.8-11.4-5.3-17.3l-2.7-0.2c-3.3,5.7-5,11.6-6.2,17.6c-1.1,6-1.5,12-1.3,18
	c0.1,4.3,0.7,8.5,1.6,12.7c-8.9,0.6-17.8,1.1-26.7,1.5c-0.5-1.2-1-2.4-1.4-3.5c-5.4-14.4-9.5-29.1-11.9-44.1
	c-2.4-15-2.9-30.4-1.7-45.7c1.2-15,3.9-30.1,7.8-45.1l0.1,0c1.5-3.9,3.1-7,5.2-10.3c2.1-3.2,4.5-6.2,7.1-8.9
	c5.4-5.5,11.9-10.1,19.2-13.6c14.5-7.1,31.4-10.3,48.4-11.5c17.1-1,34.5,0,51.8,2.4c17.3,2.5,34.4,6.2,50.9,11.5
	c16.5,5.4,32.5,12.4,46.9,21.9c7.1,4.8,13.9,10.2,19.6,16.4c5.8,6.2,10.7,13.2,13.8,20.9c3.1,7.7,4.3,16,2.9,24.2
	c-1.4,8.1-5.3,15.8-10.6,22.4c-5.4,6.6-12.1,12.3-19.4,17C467.3,156.1,459.5,160.1,451.3,163.6L451.3,163.6z"/>
</svg>
